<?xml version="1.0" encoding="utf-8"?>
<!-- Generator: Adobe Illustrator 21.0.0, SVG Export Plug-In . SVG Version: 6.00 Build 0)  -->
<svg version="1.1" id="Layer_1" xmlns="http://www.w3.org/2000/svg" xmlns:xlink="http://www.w3.org/1999/xlink" x="0px" y="0px"
	 viewBox="0 0 21 21.4" style="enable-background:new 0 0 21 21.4;" xml:space="preserve">
<style type="text/css">
	.st0{fill:#36495E;}
</style>
<g>
	<g>
		<path class="st0" d="M17.8,20.3c0,0-0.1,0-0.1,0l-14.3,0c-0.2,0-0.4,0-0.6-0.2c-0.2-0.2-0.4-0.5-0.4-0.9c0-2-0.8-2.8-1.5-3.3
			C0.4,15.5,0,15.1,0,14.4v-0.8c0,0,0,0,0,0c0,0-0.1-0.4,0.2-0.8c0.3-0.4,0.8-0.6,1.6-0.6h17.4c0.7,0,1.3,0.2,1.6,0.6
			c0.3,0.4,0.3,0.8,0.2,0.9l0,0.8c0,0.6-0.4,1-0.9,1.4c-0.7,0.6-1.5,1.3-1.5,3.3c0,0.4-0.2,0.8-0.4,0.9
			C18.1,20.2,17.9,20.3,17.8,20.3z M17.7,19.3L17.7,19.3C17.7,19.2,17.7,19.2,17.7,19.3z M3.3,19.3h14.3c0,0,0-0.1,0-0.1
			c0-2.4,1.1-3.4,1.8-4c0.4-0.3,0.5-0.5,0.5-0.7l0-1c0,0-0.2-0.2-0.8-0.2H1.8c-0.6,0-0.8,0.1-0.8,0.2l0,0l0,0.1v0.9
			c0,0.2,0.2,0.3,0.5,0.7c0.7,0.6,1.8,1.6,1.8,4.1C3.3,19.2,3.3,19.2,3.3,19.3z"/>
	</g>
	<g>
		<path class="st0" d="M3.5,13.3C3.2,13.3,3,13,3,12.8V2.1c0-0.1,0-0.7,0.5-1.2c0.4-0.5,1.1-0.7,2-0.7c1.8,0,2.4,1,2.7,1.6
			c2-0.1,2.9,0.7,3,0.8c0.1,0.1,0.2,0.2,0.2,0.4c0,0.1-0.1,0.3-0.1,0.4c0,0-1.6,1.6-2.4,2.4C8.7,5.8,8.5,5.9,8.4,5.9
			C8.2,5.9,8.1,5.8,8,5.7c-0.7-0.9-0.7-2.3-0.6-3c0-0.1,0-0.1,0-0.2c0-0.1-0.1-0.1-0.1-0.2C7,1.9,6.7,1.2,5.5,1.2
			c-0.6,0-1,0.1-1.3,0.4C4,1.9,4,2.1,4,2.1l0,10.6C4,13,3.8,13.3,3.5,13.3z M8.4,2.9c0,0.4,0,1.1,0.1,1.7c0.5-0.5,1-1,1.4-1.4
			C9.6,3,9.1,2.9,8.4,2.9z"/>
	</g>
	<g>
		<path class="st0" d="M8.5,13.3C8.2,13.3,8,13,8,12.8v-1c0-0.3,0.2-0.5,0.5-0.5S9,11.5,9,11.8v1C9,13,8.8,13.3,8.5,13.3z"/>
	</g>
	<g>
		<path class="st0" d="M4.6,21.4c-0.1,0-0.3,0-0.4-0.1c-0.2-0.2-0.2-0.5,0-0.7l1.1-1.1c0.2-0.2,0.5-0.2,0.7,0s0.2,0.5,0,0.7L5,21.2
			C4.9,21.3,4.8,21.4,4.6,21.4z"/>
	</g>
	<g>
		<path class="st0" d="M16.8,21.4c-0.1,0-0.3,0-0.4-0.1l-1.1-1.1c-0.2-0.2-0.2-0.5,0-0.7s0.5-0.2,0.7,0l1.1,1.1
			c0.2,0.2,0.2,0.5,0,0.7C17.1,21.3,16.9,21.4,16.8,21.4z"/>
	</g>
	<g>
		<path class="st0" d="M10.5,13.3c-0.3,0-0.5-0.2-0.5-0.5v-1c0-0.3,0.2-0.5,0.5-0.5s0.5,0.2,0.5,0.5v1C11,13,10.8,13.3,10.5,13.3z"
			/>
	</g>
	<g>
		<path class="st0" d="M12.5,13.3c-0.3,0-0.5-0.2-0.5-0.5v-1c0-0.3,0.2-0.5,0.5-0.5s0.5,0.2,0.5,0.5v1C13,13,12.8,13.3,12.5,13.3z"
			/>
	</g>
</g>
</svg>
