<?xml version="1.0" encoding="utf-8"?>
<!-- Generator: Adobe Illustrator 21.0.0, SVG Export Plug-In . SVG Version: 6.00 Build 0)  -->
<svg version="1.1" id="Layer_1" xmlns="http://www.w3.org/2000/svg" xmlns:xlink="http://www.w3.org/1999/xlink" x="0px" y="0px"
	 viewBox="0 0 24 21.1" style="enable-background:new 0 0 24 21.1;" xml:space="preserve">
<style type="text/css">
	.st0{fill:#36495E;}
</style>
<g>
	<g>
		<path class="st0" d="M23.5,21c-0.3,0-0.5-0.2-0.5-0.5v-7.7c0-0.2-0.1-1.8-1.6-1.8H0.5C0.2,11,0,10.8,0,10.5S0.2,10,0.5,10h20.9
			c2,0,2.6,1.8,2.6,2.8v7.7C24,20.8,23.8,21,23.5,21z"/>
	</g>
	<g>
		<path class="st0" d="M0.5,21C0.2,21,0,20.8,0,20.5v-18C0,2.2,0.2,2,0.5,2S1,2.2,1,2.5v18C1,20.8,0.8,21,0.5,21z"/>
	</g>
	<g>
		<path class="st0" d="M23.5,17h-23C0.2,17,0,16.8,0,16.5S0.2,16,0.5,16h23c0.3,0,0.5,0.2,0.5,0.5S23.8,17,23.5,17z"/>
	</g>
	<g>
		<path class="st0" d="M6.5,17C6.2,17,6,16.8,6,16.5v-6C6,10.2,6.2,10,6.5,10S7,10.2,7,10.5v6C7,16.8,6.8,17,6.5,17z"/>
	</g>
	<g>
		<path class="st0" d="M8.3,10.4c-0.3,0-0.5-0.2-0.5-0.5C7.8,8.1,6.4,8,6.3,8H2.7C2.2,8,1.8,8.1,1.5,8.4C1,8.9,1,9.8,1,9.8
			c0,0.3-0.2,0.5-0.5,0.5c-0.3,0-0.5-0.2-0.5-0.5c0-0.1,0-1.3,0.8-2.1C1.3,7.2,1.9,7,2.7,7h3.5c0.9,0,2.5,0.6,2.5,2.9
			C8.8,10.2,8.5,10.4,8.3,10.4z"/>
	</g>
</g>
</svg>
