<?xml version="1.0" encoding="utf-8"?>
<!-- Generator: Adobe Illustrator 21.0.0, SVG Export Plug-In . SVG Version: 6.00 Build 0)  -->
<svg version="1.1" id="Layer_1" xmlns="http://www.w3.org/2000/svg" xmlns:xlink="http://www.w3.org/1999/xlink" x="0px" y="0px"
	 viewBox="0 0 21.6 21.1" style="enable-background:new 0 0 21.6 21.1;" xml:space="preserve">
<style type="text/css">
	.st0{fill:#36495E;}
</style>
<g>
	<g>
		<path class="st0" d="M20.7,10.4c-0.1,0-0.2,0-0.3-0.1l-9.2-8.5l-9.8,8.5c-0.2,0.2-0.5,0.2-0.7-0.1C0.5,10,0.6,9.7,0.8,9.5
			l10.5-9.1l9.8,9.2c0.2,0.2,0.2,0.5,0,0.7C21,10.4,20.8,10.4,20.7,10.4z"/>
	</g>
	<g>
		<path class="st0" d="M4.7,21c-0.4,0-0.8-0.2-1.1-0.4C3,19.9,3,18.9,3,18.8V7.9c0-0.3,0.2-0.5,0.5-0.5S4,7.6,4,7.9v10.9
			c0,0,0,1.2,0.7,1.2c0,0,0,0,0,0H17c0.2,0,1-0.1,1-1.2V8.1c0-0.3,0.2-0.5,0.5-0.5S19,7.8,19,8.1v10.7c0,0.7-0.2,1.2-0.6,1.6
			C17.8,21,17.1,21,17,21h0H4.7C4.7,21,4.7,21,4.7,21z"/>
	</g>
	<g>
		<path class="st0" d="M13.5,21c-0.3,0-0.5-0.2-0.5-0.5v-8.3c0-0.1,0-0.2-0.1-0.2H9.3C9.1,12,9,12.1,9,12.1l0,8.4
			C9,20.8,8.8,21,8.5,21S8,20.8,8,20.5v-8.4c0,0,0,0,0,0c0,0-0.1-0.4,0.2-0.7C8.4,11.1,8.8,11,9.3,11h3.6c0.4,0,1.1,0.3,1.1,1.2v8.3
			C14,20.8,13.8,21,13.5,21z"/>
	</g>
	<g>
	</g>
	<g>
	</g>
</g>
</svg>
