<?xml version="1.0" encoding="utf-8"?>
<!-- Generator: Adobe Illustrator 21.0.0, SVG Export Plug-In . SVG Version: 6.00 Build 0)  -->
<svg version="1.1" id="Layer_1" xmlns="http://www.w3.org/2000/svg" xmlns:xlink="http://www.w3.org/1999/xlink" x="0px" y="0px"
	 viewBox="0 0 11.8 17.6" style="enable-background:new 0 0 11.8 17.6;" xml:space="preserve">
<style type="text/css">
	.st0{fill:#36495E;}
</style>
<g>
	<path class="st0" d="M5.9,17.1c-0.3,0-0.5-0.1-0.7-0.4C5,16.4,0,9,0,5.9c0-3.2,2.6-5.8,5.8-5.8s5.8,2.6,5.8,5.8
		c0,3-4.9,10.5-5.1,10.8C6.4,16.9,6.2,17.1,5.9,17.1z M6,16.2C6,16.2,6,16.2,6,16.2C6,16.2,6,16.2,6,16.2z M5.9,1.1
		C3.2,1.1,1,3.3,1,5.9c0,2.2,3.4,7.8,4.8,10c1.5-2.2,4.8-7.8,4.8-10C10.7,3.3,8.5,1.1,5.9,1.1z M5.9,8.7C4.3,8.7,3,7.5,3,5.9
		c0-1.6,1.3-2.8,2.8-2.8s2.8,1.3,2.8,2.8C8.7,7.5,7.4,8.7,5.9,8.7z M5.9,4.1C4.9,4.1,4,4.9,4,5.9c0,1,0.8,1.8,1.8,1.8
		s1.8-0.8,1.8-1.8C7.7,4.9,6.9,4.1,5.9,4.1z"/>
</g>
</svg>
