<?xml version="1.0" encoding="utf-8"?>
<!-- Generator: Adobe Illustrator 21.0.0, SVG Export Plug-In . SVG Version: 6.00 Build 0)  -->
<svg version="1.1" id="Layer_1" xmlns="http://www.w3.org/2000/svg" xmlns:xlink="http://www.w3.org/1999/xlink" x="0px" y="0px"
	 viewBox="0 0 19 26" style="enable-background:new 0 0 19 26;" xml:space="preserve">
<style type="text/css">
	.st0{fill:#0B6567;}
</style>
<g>
	<path class="st0" d="M12.8,25.7c-0.4,0-0.9-0.1-1.3-0.2c-2.7-0.7-5.2-3.3-8.4-8.9C-0.8,9.9-0.6,3.1,3.4,0.8l0.2-0.1l1.9-0.3
		c0.7-0.1,1.5,0.3,1.7,1l1.6,4.1C9.1,6,9.6,7.2,8.6,7.7L7.9,8.3c-0.8,0.5-2.2,1.3,0.2,5.4c1.3,2.3,2.4,3,3,3.2c0.5,0.1,1,0,1.5-0.3
		l1.2-0.6c0.8-0.3,1.5,0.5,1.9,1.1l0.1,0.2l2.7,3.3c0.4,0.6,0.4,1.4,0,2L17,24.3C15.5,25.2,14.1,25.7,12.8,25.7z M4,2.1
		C0.8,4.1,1,10,4.4,15.9c2.9,5.1,5.2,7.6,7.5,8.2c1.3,0.3,2.6,0,4.2-1l1.2-1.4l0,0l0,0l-2.9-3.6c-0.1-0.1-0.2-0.3-0.3-0.4L13.3,18
		c-0.6,0.3-1.4,0.7-2.5,0.4c-1.4-0.4-2.7-1.6-4-3.9c-2.1-3.7-2-6.1,0.3-7.4l0.6-0.5c0-0.2-0.2-0.5-0.2-0.6L7.4,5.9l-1.5-4L4,2.1z
		 M7.8,6.5C7.8,6.5,7.8,6.5,7.8,6.5L7.8,6.5z"/>
</g>
</svg>
