<?xml version="1.0" encoding="utf-8"?>
<!-- Generator: Adobe Illustrator 21.0.0, SVG Export Plug-In . SVG Version: 6.00 Build 0)  -->
<svg version="1.1" id="Layer_1" xmlns="http://www.w3.org/2000/svg" xmlns:xlink="http://www.w3.org/1999/xlink" x="0px" y="0px"
	 viewBox="0 0 236 50" style="enable-background:new 0 0 236 50;" xml:space="preserve">
<style type="text/css">
	.st0{fill:#0E6568;}
	.st1{enable-background:new    ;}
	.st2{fill:#FFFFFF;}
</style>
<title>logo</title>
<rect x="-2.7" y="-1.4" class="st0" width="240.3" height="53.5"/>
<g class="st1">
	<path class="st2" d="M34.4,29h-8.9L23,34.9h-2.6L30.1,13l9.4,21.9h-2.6L34.4,29z M33.5,26.8L30,18.4l-3.6,8.4H33.5z"/>
	<path class="st2" d="M53.1,24.4h8.7v0.5c0,2.3-0.7,4.8-2,6.6c-0.6,0.8-3,3.8-7.8,3.8c-6.2,0-10.8-4.7-10.8-10.8s4.7-10.8,10.9-10.8
		c2,0,4.4,0.5,6.4,2.1c0.9,0.7,1.8,1.7,2.4,2.5l-1.7,1.6c-0.6-0.8-1.3-1.6-2-2.2c-1-0.8-2.6-1.8-5.1-1.8c-5,0-8.6,3.8-8.6,8.6
		c0,5.7,4.5,8.6,8.5,8.6c2.8,0,5.2-1.4,6.4-3.5c0.4-0.7,0.8-1.7,0.8-3h-6.2V24.4z"/>
	<path class="st2" d="M77,16.2h-8.5v6.2h8.3v2.2h-8.3v8.1H77v2.2H66.1V14H77V16.2z"/>
	<path class="st2" d="M81.2,34.9V13.1l16.3,17.1V14h2.3v21.8L83.5,18.8v16.1H81.2z"/>
	<path class="st2" d="M121.2,18.6c-0.7-0.7-1.7-1.4-2.7-1.9c-1.1-0.5-2.4-0.8-3.6-0.8c-4.8,0-8.4,3.9-8.4,8.7c0,5.7,4.6,8.5,8.4,8.5
		c1.4,0,2.8-0.4,3.9-1c1.2-0.6,2-1.4,2.4-1.8v2.9c-2.3,1.7-4.7,2-6.3,2c-6.2,0-10.8-4.7-10.8-10.7c0-6.2,4.7-10.9,10.9-10.9
		c1.3,0,3.7,0.2,6.2,2.1V18.6z"/>
	<path class="st2" d="M129.9,25.9L123,14h2.7l5.3,9.3l5.4-9.3h2.7l-6.9,11.9v9h-2.3V25.9z"/>
	<path class="st2" d="M148.2,34.9l7.6-8.8c0.5-0.6,1.9-2.3,2.4-3c0.9-1.3,1.2-2.3,1.2-3.2c0-2.3-1.7-4.1-4.2-4.1
		c-1.5,0-2.7,0.7-3.5,1.8c-0.4,0.6-0.7,1.4-0.7,2.5h-2.3c0.1-2.1,0.8-3.4,1.6-4.3c0.9-1,2.3-2.1,5-2.1c3.7,0,6.5,2.6,6.5,6.2
		c0,1.4-0.4,2.7-1.7,4.5c-0.9,1.2-2,2.5-2.9,3.5l-4.4,4.9h8.8v2.1H148.2z"/>
	<path class="st2" d="M168,32.1c-1.4-2-2.1-4.7-2.1-7.7s0.7-5.7,2.1-7.7c1.6-2.3,3.7-3.1,5.4-3.1c1.7,0,3.8,0.8,5.4,3.1
		c1.4,2,2.1,4.7,2.1,7.7s-0.7,5.7-2.1,7.7c-1.6,2.3-3.7,3.1-5.4,3.1C171.7,35.3,169.6,34.5,168,32.1z M169.8,18.1
		c-1.1,1.8-1.5,4.2-1.5,6.4s0.4,4.6,1.5,6.4c1.1,1.8,2.5,2.3,3.6,2.3c1.1,0,2.5-0.6,3.6-2.3c1.1-1.8,1.5-4.2,1.5-6.4
		s-0.4-4.6-1.5-6.4c-1.1-1.8-2.5-2.3-3.6-2.3C172.3,15.8,170.9,16.3,169.8,18.1z"/>
	<path class="st2" d="M185,19.2c0.1-1.2,0.4-2.2,1-3.1c1.4-2.2,3.6-2.4,4.9-2.4c3.9,0,5.9,2.8,5.9,5.6c0,1.5-0.6,3.6-2.7,4.6
		c0.7,0.3,3,1.4,3,5c0,3.9-2.9,6.3-6.4,6.3c-2.2,0-4.7-0.9-5.8-3.6c-0.3-0.8-0.4-1.4-0.5-2.2h2.3c0.1,0.8,0.3,1.5,0.8,2.1
		c0.7,1,1.9,1.6,3.2,1.6c2.3,0,4.1-1.9,4.1-4.2c0-1.2-0.5-2.8-2.1-3.5c-0.7-0.3-1.6-0.5-2.4-0.4v-2.1c0.8,0.1,1.7-0.1,2.4-0.4
		c0.7-0.3,1.8-1.2,1.8-3.1c0-1.8-1-3.6-3.6-3.6c-0.8,0-1.9,0.2-2.7,1.2c-0.4,0.5-0.8,1.3-0.8,2.2H185z"/>
	<path class="st2" d="M203.6,32.1c-1.4-2-2.1-4.7-2.1-7.7s0.7-5.7,2.1-7.7c1.6-2.3,3.7-3.1,5.4-3.1s3.8,0.8,5.4,3.1
		c1.4,2,2.1,4.7,2.1,7.7s-0.7,5.7-2.1,7.7c-1.6,2.3-3.7,3.1-5.4,3.1S205.2,34.5,203.6,32.1z M205.3,18.1c-1.1,1.8-1.5,4.2-1.5,6.4
		s0.4,4.6,1.5,6.4c1.1,1.8,2.5,2.3,3.6,2.3s2.5-0.6,3.6-2.3c1.1-1.8,1.5-4.2,1.5-6.4s-0.4-4.6-1.5-6.4c-1.1-1.8-2.5-2.3-3.6-2.3
		S206.4,16.3,205.3,18.1z"/>
</g>
<g>
	<polygon class="st2" points="231.4,45 148.5,45 148.5,44.2 230.6,44.2 230.6,5 5.4,5 5.4,44.2 130.6,44.2 130.6,33.1 131.4,33.1 
		131.4,45 4.6,45 4.6,4.2 231.4,4.2 	"/>
</g>
</svg>
