<?xml version="1.0" encoding="utf-8"?>
<!-- Generator: Adobe Illustrator 21.0.0, SVG Export Plug-In . SVG Version: 6.00 Build 0)  -->
<svg version="1.1" id="Layer_1" xmlns="http://www.w3.org/2000/svg" xmlns:xlink="http://www.w3.org/1999/xlink" x="0px" y="0px"
	 viewBox="0 0 42 27" style="enable-background:new 0 0 42 27;" xml:space="preserve">
<style type="text/css">
	.st0{fill:none;stroke:#36495E;stroke-linecap:round;stroke-miterlimit:10;}
	.st1{fill:none;stroke:#36495E;stroke-width:0.75;stroke-linecap:round;stroke-miterlimit:10;}
	.st2{fill:#0B6567;}
</style>
<g>
	<path class="st0" d="M445.3,640.6v-5.5c0,0-0.1-1.6,1.8-1.6c1.9,0,14.9,0,14.9,0s1.6,0,1.6,1.7c0,1.7,0,5.4,0,5.4"/>
	<line class="st1" x1="445.3" y1="637.5" x2="463.6" y2="637.5"/>
	<line class="st0" x1="445.3" y1="639.1" x2="463.6" y2="639.1"/>
	<path class="st0" d="M446.8,633.4v-3.9c0,0-0.1-1.6,1.5-1.6s11.9,0,11.9,0s1.7,0,1.7,1.6s0,3.9,0,3.9"/>
	<path class="st1" d="M449.1,630.9l-0.5,1.7c0,0-0.3,0.8,0.6,0.9c1.2,0,3.3,0,3.3,0s0.6-0.1,0.6-0.8s0-1.6,0-1.6s0-0.8-0.9-0.8
		c-0.8,0-2.6,0-2.6,0S449.3,630.2,449.1,630.9z"/>
	<path class="st1" d="M459.7,630.9l0.5,1.7c0,0,0.3,0.8-0.6,0.9c-1.2,0-3.3,0-3.3,0s-0.6-0.1-0.6-0.8s0-1.6,0-1.6s0-0.8,0.9-0.8
		c0.8,0,2.6,0,2.6,0S459.5,630.2,459.7,630.9z"/>
</g>
<g>
	<g>
		<path class="st2" d="M39.8,3h-38C1,3,0.3,2.3,0.3,1.5S1,0,1.8,0h38c0.8,0,1.5,0.7,1.5,1.5S40.7,3,39.8,3z"/>
	</g>
	<g>
		<path class="st2" d="M39.8,15h-38c-0.8,0-1.5-0.7-1.5-1.5S1,12,1.8,12h38c0.8,0,1.5,0.7,1.5,1.5S40.7,15,39.8,15z"/>
	</g>
	<g>
		<path class="st2" d="M39.8,27h-38c-0.8,0-1.5-0.7-1.5-1.5S1,24,1.8,24h38c0.8,0,1.5,0.7,1.5,1.5S40.7,27,39.8,27z"/>
	</g>
</g>
</svg>
